<?xml version="1.0" standalone="no"?>
<!DOCTYPE svg PUBLIC "-//W3C//DTD SVG 20010904//EN"
 "http://www.w3.org/TR/2001/REC-SVG-20010904/DTD/svg10.dtd">
<svg version="1.0" xmlns="http://www.w3.org/2000/svg"
 width="512.000000pt" height="512.000000pt" viewBox="0 0 512.000000 512.000000"
 preserveAspectRatio="xMidYMid meet">
<metadata>
Created by potrace 1.15, written by Peter Selinger 2001-2017
</metadata>
<g transform="translate(0.000000,512.000000) scale(0.100000,-0.100000)"
fill="#000000" stroke="none">
 <path class="change-fill" d="M78 319 c-43 -22 -78 -81 -78 -131 1 -74 74 -148 148 -148 152 0 207
 202 76 277 -48 28 -97 28 -146 2z m153 -45 c49 -47 50 -120 2 -168 -42 -42
 -59 -32 -79 49 -6 23 -3 25 27 26 30 1 31 2 9 8 -20 5 -25 12 -25 36 0 26 -4
 30 -29 33 -28 3 -29 2 -23 -32 5 -32 3 -35 -21 -39 -25 -4 -25 -4 4 -6 31 -1
 53 -24 34 -36 -5 -3 -11 -19 -15 -35 -8 -38 -14 -37 -51 1 -55 57 -33 157 41
 190 35 15 95 3 126 -27z"/>
</g>
</svg>
